<svg width="20" height="20" viewBox="0 0 20 20" fill="none" xmlns="http://www.w3.org/2000/svg">
	<path fill-rule="evenodd" clip-rule="evenodd" d="M5 13.667V3.127L8.75 5.377V3.91887L5.64313 2.05512C5.43687 1.93137 5.21687 1.87512 5.0025 1.87512C4.35 1.87512 3.75 2.39575 3.75 3.127V13.667C3.75 14.1064 3.98 14.5132 4.35688 14.7395L8.75 17.3751V15.9176L5 13.667Z" fill="#00AA00"/>
	<path fill-rule="evenodd" clip-rule="evenodd" d="M14.9976 1.875C14.7832 1.875 14.5632 1.93125 14.357 2.055L10.0001 4.66938V18.125L15.6432 14.7394C16.0201 14.5131 16.2501 14.1063 16.2501 13.6669V3.12688C16.2501 2.39563 15.6501 1.875 14.9976 1.875Z" fill="#00AA00"/>
</svg>
