<svg xmlns="http://www.w3.org/2000/svg" viewBox="0 0 280.4 92.16"><defs><style>.cls-1{fill:none;}.cls-2{fill:#00b900;}.cls-3{fill:#e60012;}</style></defs><title>アセット 1</title><g id="レイヤー_2" data-name="レイヤー 2"><g id="Logos"><rect class="cls-1" x="2.55" y="1.87" width="275.01" height="90.29"/><path class="cls-2" d="M1.24,80.08l-1.13-4a1.58,1.58,0,0,1,.13-1.42,1.74,1.74,0,0,1,1.16-.84q21.44-5.13,29.63-13a.21.21,0,0,0-.05-.16H6.32A1.79,1.79,0,0,1,5,60.19a1.93,1.93,0,0,1-.54-1.38V55.3A1.93,1.93,0,0,1,5,53.92a1.79,1.79,0,0,1,1.35-.56h12.3a.24.24,0,0,0,.27-.27V47.85A1.83,1.83,0,0,1,20.78,46h4.91a1.93,1.93,0,0,1,1.38.53,1.77,1.77,0,0,1,.56,1.35v5.24c0,.18.09.27.28.27H41.18a1.81,1.81,0,0,1,1.35.56,1.93,1.93,0,0,1,.54,1.38v3.51a5,5,0,0,1-1.19,3.45,39.3,39.3,0,0,1-7.23,6.48c-.18.11-.2.2,0,.27Q41.4,73.93,46,77.38a1.79,1.79,0,0,1,.67,1.24,1.76,1.76,0,0,1-.4,1.35l-2.7,3.24a2.15,2.15,0,0,1-1.32.7,1.9,1.9,0,0,1-1.43-.38q-6.48-4.8-13.06-9.45c-.11,0-.17,0-.17.11V90.28a1.8,1.8,0,0,1-.56,1.35,1.93,1.93,0,0,1-1.38.53H20.78a1.82,1.82,0,0,1-1.35-.53,1.86,1.86,0,0,1-.54-1.35V77.05c0-.18-.07-.23-.22-.16a134.73,134.73,0,0,1-15,4.54,1.89,1.89,0,0,1-1.48-.19A1.9,1.9,0,0,1,1.24,80.08Z"/><path class="cls-2" d="M58.43,73.73a1.94,1.94,0,0,0,.24-1.62C57.85,69,57,65.69,56,62.39a2.11,2.11,0,0,0-1-1.3,2,2,0,0,0-1.64-.22l-2.86.76a2.17,2.17,0,0,0-1.3,1A1.89,1.89,0,0,0,49,64.19c1.15,4.16,2,7.35,2.65,9.77h0a2.16,2.16,0,0,0,1,1.3,1.94,1.94,0,0,0,1.62.21l2.86-.75A2.28,2.28,0,0,0,58.43,73.73Z"/><path class="cls-2" d="M62.53,72a2.18,2.18,0,0,0,1,1.3,2,2,0,0,0,1,.3,2.3,2.3,0,0,0,.57-.08l3-.76a2.18,2.18,0,0,0,1.3-1,2,2,0,0,0,.21-1.61c-1.39-5.34-2.26-8.63-2.64-10a2.27,2.27,0,0,0-1-1.33,2,2,0,0,0-1.64-.24l-3,.81a2.17,2.17,0,0,0-1.29,1,1.92,1.92,0,0,0-.22,1.6C60.89,65.68,61.8,69.07,62.53,72Z"/><path class="cls-2" d="M83.91,60.41a2,2,0,0,0-1.44-.73l-3.61-.16a2,2,0,0,0-1.55.51,2.35,2.35,0,0,0-.75,1.48C75.77,68.7,73.89,74.11,71,77.6s-7.64,5.94-14,7.29a2,2,0,0,0-1.33.91,1.84,1.84,0,0,0-.25,1.59l.59,2.6a2.45,2.45,0,0,0,1,1.4,2,2,0,0,0,1.61.33C66.83,90.1,73,87,77,82.5s6.45-11.41,7.42-20.56h0A2,2,0,0,0,83.91,60.41Z"/><path class="cls-2" d="M93.05,91.57a1.93,1.93,0,0,1-1.94-1.94v-40a1.91,1.91,0,0,1,1.94-1.94h5.13a1.81,1.81,0,0,1,1.35.56,1.93,1.93,0,0,1,.54,1.38V61.94c0,.15.09.25.27.32a187.44,187.44,0,0,1,21.59,7.34,2,2,0,0,1,1,2.49l-1.56,3.83a1.73,1.73,0,0,1-1,1,2,2,0,0,1-1.49,0,162.49,162.49,0,0,0-18.56-6.36c-.18-.08-.27,0-.27.16V89.63A1.89,1.89,0,0,1,99.53,91a1.78,1.78,0,0,1-1.35.57Z"/><path class="cls-2" d="M125.22,88.87l-1.78-3.67a1.82,1.82,0,0,1,0-1.43,1.61,1.61,0,0,1,1-1,58.45,58.45,0,0,0,17.06-10.69q7.54-6.8,10.52-13.92c.07-.15,0-.22-.16-.22H129.87a1.78,1.78,0,0,1-1.35-.57A1.89,1.89,0,0,1,128,56V52.22a1.85,1.85,0,0,1,1.89-1.89h29.9a1.91,1.91,0,0,1,1.37.54,1.78,1.78,0,0,1,.57,1.35v5.45a1.86,1.86,0,0,1-.11.43,49.78,49.78,0,0,1-8.26,13.6c-.1.11-.09.24.06.38q6.09,5.46,12.3,11.44a1.93,1.93,0,0,1,0,2.7l-3.07,3.19a1.93,1.93,0,0,1-1.35.56,1.73,1.73,0,0,1-1.35-.51Q153.3,83,147.68,78a.28.28,0,0,0-.38,0,61.78,61.78,0,0,1-19.48,12,2.07,2.07,0,0,1-1.49,0A2.18,2.18,0,0,1,125.22,88.87Z"/><path class="cls-2" d="M168.43,74.58a1.3,1.3,0,0,1-1.08-.56,2.2,2.2,0,0,1-.43-1.38V67.78a2.16,2.16,0,0,1,.43-1.37,1.31,1.31,0,0,1,1.08-.57h29a1.3,1.3,0,0,1,1.08.57,2.16,2.16,0,0,1,.43,1.37v4.86a2.2,2.2,0,0,1-.43,1.38,1.29,1.29,0,0,1-1.08.56Z"/><path class="cls-2" d="M249.86,74.58a1.3,1.3,0,0,1-1.08-.56,2.21,2.21,0,0,1-.44-1.38V67.78a2.16,2.16,0,0,1,.44-1.37,1.31,1.31,0,0,1,1.08-.57h29a1.28,1.28,0,0,1,1.07.57,2.16,2.16,0,0,1,.44,1.37v4.86A2.21,2.21,0,0,1,280,74a1.27,1.27,0,0,1-1.07.56Z"/><path class="cls-2" d="M237.59,62a10.75,10.75,0,0,1-1.34-1.12,9.68,9.68,0,0,1-2.93-7.08,10.09,10.09,0,0,1,.29-2.42,2,2,0,0,0-.8-.74,1.85,1.85,0,0,0-1.52-.11L226.85,52a1.82,1.82,0,0,0-1.08,1,1.73,1.73,0,0,0-.05,1.41,263.41,263.41,0,0,1,9.85,34.06,1.89,1.89,0,0,0,.87,1.21,1.84,1.84,0,0,0,1.46.3l5.2-1.08a1.92,1.92,0,0,0,1.21-.82,1.57,1.57,0,0,0,.25-1.4Q241.35,73.15,237.59,62Z"/><path class="cls-2" d="M249.28,47.88a8.42,8.42,0,0,0-14.37,5.95,8.23,8.23,0,0,0,.84,3.65c.1.21.21.41.33.61s.21.35.33.52h0a8.41,8.41,0,1,0,12.87-10.73ZM245.54,56a3.14,3.14,0,1,1,.91-2.21A3,3,0,0,1,245.54,56Z"/><path class="cls-2" d="M215.43,51l-4.66-.21a1.74,1.74,0,0,0-1.38.49,2.18,2.18,0,0,0-.67,1.35,76.69,76.69,0,0,1-9.42,32,1.81,1.81,0,0,0-.17,1.43,1.67,1.67,0,0,0,.92,1.06l4.6,2.22a2,2,0,0,0,2.71-.81,83.55,83.55,0,0,0,9.91-35.47,1.83,1.83,0,0,0-.49-1.41A2,2,0,0,0,215.43,51Z"/><g id="_グループ_" data-name="&lt;グループ&gt;"><polyline id="_パス_" data-name="&lt;パス&gt;" class="cls-3" points="225.35 2.9 235.45 19.91 235.45 30 242.51 30 242.51 19.91 252.83 2.9 245.32 2.9 239.09 13.92 232.65 2.9 225.35 2.9"/><path id="_パス_2" data-name="&lt;パス&gt;" class="cls-3" d="M181.68,10.76h7c0-2.8-.14-7.67-7.23-8.83-.51-.07-7.54-.08-8.14,0s-8,.13-8,7.92c0,7,7.24,7.79,7.24,7.79s7,1.82,7.45,2,2.15.68,2.15,2.16-1,1.8-1.92,2a15.78,15.78,0,0,1-3.92.25c-2.37,0-4.33-.82-4.44-2.75s-.09-1.21-.09-1.21h-6.89c0,9.63,6,9.56,8.7,10,.68.11,6.66.06,7.66-.05,5.11-.59,7.91-4.51,7.91-7.83,0-7.54-5.46-8.06-7.58-8.59s-7.23-2-8-2.25-1.13-.46-1.13-1.59,1.24-1.59,1.24-1.59.68-.4,3.58-.4c1.36,0,3.5.19,4.11,1.31a3.18,3.18,0,0,1,.34,1.59"/><polyline id="_パス_3" data-name="&lt;パス&gt;" class="cls-3" points="213.43 9.07 213.43 2.56 191.96 2.56 191.96 29.91 213.43 29.91 213.43 23.41 198.97 23.41 198.97 19.05 213.43 19.05 213.43 13.08 198.97 13.08 198.97 9.07 213.43 9.07"/><rect id="_パス_4" data-name="&lt;パス&gt;" class="cls-3" x="216.78" y="2.84" width="7.12" height="26.89"/><path id="_パス_5" data-name="&lt;パス&gt;" class="cls-3" d="M254.2,2.72V20.41a9.71,9.71,0,0,0,8.38,9.72c1.49.16,5.91.05,6.73,0,3.12-.23,8.25-3.71,8.25-8.9V2.72h-6.51V19.8c0,1.57-1,4.12-5.08,4.12s-5.31-2.55-5.31-4.12V2.72H254.2"/></g><polygon class="cls-3" points="113.82 34.47 30.2 34.47 36.86 41.13 113.82 34.47"/><path class="cls-3" d="M37.94,7.53v1A8.43,8.43,0,0,0,33.09,7c-5.86,0-10.31,5.34-10.31,11.91s4.45,11.9,10.31,11.9a8.35,8.35,0,0,0,4.85-1.57v1h5.15V7.53ZM33.09,25.31c-2.89,0-5-2.84-5-6.43s2.11-6.44,5-6.44S38,15.28,38,18.88,36,25.31,33.09,25.31Z"/><path class="cls-3" d="M79.2,7.53V20.86a4.24,4.24,0,1,1-8.44,0V7.53H65.61V20.86c0,5.47,3.74,9.92,9.21,9.92a7.93,7.93,0,0,0,4.38-1.4v.84h5.15V7.53Z"/><path class="cls-3" d="M127.18,30.22V16.89a4.24,4.24,0,1,1,8.44,0V30.22h5.15V16.89c0-5.47-3.74-9.92-9.21-9.92a7.93,7.93,0,0,0-4.38,1.4V7.53H122V30.22Z"/><path class="cls-3" d="M7.94,30.22V21.43h3.81l6.59,8.79h6.74l-8-10.61A9.77,9.77,0,0,0,11.45,1.87H2.55V30.22Zm0-23h3.51a4.39,4.39,0,1,1,0,8.78H7.94Z"/><path class="cls-3" d="M98.23,24.85a3,3,0,0,1-1.72.56,2.53,2.53,0,0,1-2.43-2.78V12.91h4.4V7.53h-4.4V1.87H88.93V7.53H86.2v5.38h2.73V22.7a7.75,7.75,0,0,0,7.65,8.1,10.59,10.59,0,0,0,5-1.43Z"/><polygon class="cls-3" points="55.9 18.17 64.73 7.53 57.51 7.53 51.33 15.43 51.33 0 46.03 0 46.03 30.22 51.33 30.22 51.33 20.9 58.93 30.22 66.14 30.22 55.9 18.17"/><path class="cls-3" d="M110.12,7c-6,0-10.23,5.24-10.23,11.92,0,7,5.36,11.93,10.75,11.93,2.71,0,6.19-.93,9.12-5.08l-4.55-2.63c-3.52,5.19-9.38,2.56-10.06-2.63H120C121.25,12.31,116,7,110.12,7Zm4.5,9h-9.28C106.43,10.63,113.62,10.33,114.62,16Z"/></g></g></svg>