<?xml version="1.0" encoding="utf-8"?>
<!-- Generator: Adobe Illustrator 24.0.2, SVG Export Plug-In . SVG Version: 6.00 Build 0)  -->
<svg version="1.1" id="レイヤー_1" xmlns="http://www.w3.org/2000/svg" xmlns:xlink="http://www.w3.org/1999/xlink" x="0px"
	 y="0px" viewBox="0 0 24 1776" width="24" height="1776" style="enable-background:new 0 0 24 1776;" xml:space="preserve" preserveAspectRatio="xMinYMid">
<style type="text/css">
	.st0{fill:none;}
	.st1{fill:#333333;}
	.st2{fill:#BF0000;}
	.st3{fill:#666666;}
	.st4{fill:#676767;}
	.st5{fill:#FFFFFF;}
	.st6{fill:#29487D;}
	.st7{fill:#28AAE1;}
	.st8{fill:url(#SVGID_1_);}
	.st9{fill:#3ACE01;}
	.st10{fill:#FFA000;}
	.st11{fill:#4AAEDE;}
	.st12{fill:#C6C6C6;}
	.st13{fill:#A4A4A4;}
	.st14{enable-background:new    ;}
	.st15{fill:#BD0711;}
	.st16{fill:#99B7DD;}
	.st17{fill:#004BAA;}
	.st18{fill:#2F8CC2;}
	.st19{fill:#2382B4;}
	.st20{fill:#4F9BC3;}
	.st21{fill:#808080;}
	.st22{fill:#262626;}
	.st23{fill:#404040;}
	.st24{fill:#EFEFEF;}
	.st25{fill:#C9C9C9;}
	.st26{fill:#646464;}
	.st27{fill:#838383;}
	.st28{fill:#FBF4CE;}
	.st29{fill:#F0D23C;}
	.st30{fill:#99740E;}
	.st31{fill:#AD903E;}
	.st32{fill:#56CCF2;}
	.st33{fill:#BDBDBD;}
	.st34{fill-rule:evenodd;clip-rule:evenodd;fill:#333333;}
</style>
<g>
	<rect y="552.1" class="st0" width="23.9" height="23.9"/>
	<path class="st1" d="M20.9,561.1l-5.8-0.8l-2.5-5.5c-0.2-0.4-0.7-0.6-1.1-0.4c-0.2,0.1-0.3,0.2-0.4,0.4l-2.5,5.5l-5.8,0.8
		c-0.4,0.1-0.8,0.5-0.7,0.9c0,0.2,0.1,0.3,0.2,0.5l4.3,4.3l-1.1,6c-0.1,0.4,0.2,0.9,0.7,1h0.1c0.1,0,0.3,0,0.4-0.1l5.1-2.9l5.1,2.9
		c0.1,0.1,0.3,0.1,0.4,0.1c0.5,0,0.8-0.4,0.8-0.8v-0.1l-1.1-6l4.3-4.3c0.3-0.3,0.3-0.8,0-1.2C21.3,561.2,21.1,561.1,20.9,561.1z
		 M16.1,565.7l-0.6,0.6l0.1,0.8l0.8,4.6l-3.8-2.2l-0.7-0.4l-0.7,0.4l-3.8,2.2l0.8-4.6l0.1-0.8l-0.6-0.6l-3.3-3.3l4.4-0.6l0.8-0.1
		l0.3-0.8l1.9-4.1l1.9,4.1l0.3,0.8l0.8,0.1l4.4,0.6L16.1,565.7z"/>
</g>
<g>
	<rect y="528" class="st0" width="23.9" height="23.9"/>
	<path class="st2" d="M20.9,537l-5.8-0.8l-2.5-5.5c-0.2-0.4-0.7-0.6-1.1-0.4c-0.2,0.1-0.3,0.2-0.4,0.4l-2.5,5.5L2.9,537
		c-0.4,0.1-0.8,0.5-0.7,0.9c0,0.2,0.1,0.3,0.2,0.5l4.3,4.3l-1.1,6c-0.1,0.4,0.2,0.9,0.7,1h0.1c0.1,0,0.3,0,0.4-0.1l5.1-2.9l5.1,2.9
		c0.1,0.1,0.3,0.1,0.4,0.1c0.5,0,0.8-0.4,0.8-0.8v-0.1l-1.1-6l4.3-4.3c0.3-0.3,0.3-0.8,0-1.2C21.3,537.1,21.1,537,20.9,537z
		 M16.1,541.5l-0.6,0.6l0.1,0.8l0.8,4.6l-3.8-2.2l-0.7-0.4l-0.7,0.4l-3.8,2.2l0.8-4.6l0.1-0.8l-0.6-0.6l-3.3-3.3l4.4-0.6l0.8-0.1
		l0.3-0.8l1.9-4.1l1.9,4.1l0.3,0.8l0.8,0.1l4.4,0.6L16.1,541.5z"/>
</g>
<g>
	<rect y="504" class="st0" width="23.9" height="23.9"/>
	<path class="st3" d="M20.9,513l-5.8-0.8l-2.5-5.5c-0.2-0.4-0.7-0.6-1.1-0.4c-0.2,0.1-0.3,0.2-0.4,0.4l-2.5,5.5L2.9,513
		c-0.4,0.1-0.8,0.5-0.7,0.9c0,0.2,0.1,0.3,0.2,0.5l4.3,4.3l-1.1,6c-0.1,0.4,0.2,0.9,0.7,1h0.1c0.1,0,0.3,0,0.4-0.1l5.1-2.9l5.1,2.9
		c0.1,0.1,0.3,0.1,0.4,0.1c0.5,0,0.8-0.4,0.8-0.8v-0.1l-1.1-6l4.3-4.3c0.3-0.3,0.3-0.8,0-1.2C21.3,513.1,21.1,513.1,20.9,513z
		 M16.1,517.6l-0.6,0.6l0.1,0.8l0.8,4.6l-3.8-2.2l-0.7-0.4l-0.7,0.4l-3.8,2.2l0.8-4.6l0.1-0.8l-0.6-0.6l-3.3-3.3l4.4-0.6l0.8-0.1
		l0.3-0.8l1.9-4.1l1.9,4.1l0.3,0.8l0.8,0.1l4.4,0.6L16.1,517.6z"/>
</g>
<g id="ic_view_module_black_36px" transform="translate(1483.442 390)">
	<path id="パス_17" class="st0" d="M-1483.4,18h24v24h-24V18z"/>
	<rect id="長方形_284" x="-1480.4" y="20.4" class="st4" width="8.4" height="8.4"/>
	<rect id="長方形_287" x="-1480.4" y="30" class="st4" width="8.4" height="8.4"/>
	<rect id="長方形_285" x="-1470.8" y="20.4" class="st4" width="8.4" height="8.4"/>
	<rect id="長方形_286" x="-1470.8" y="30" class="st4" width="8.4" height="8.4"/>
</g>
<g id="ic_view_module_black_36px_1_" transform="translate(1483.442 390)">
	<path id="パス_17_1_" class="st0" d="M-1483.4,42h24v24h-24V42z"/>
	<rect id="長方形_284_1_" x="-1480.4" y="44.4" class="st2" width="8.4" height="8.4"/>
	<rect id="長方形_287_1_" x="-1480.4" y="54" class="st2" width="8.4" height="8.4"/>
	<rect id="長方形_285_1_" x="-1470.8" y="44.4" class="st2" width="8.4" height="8.4"/>
	<rect id="長方形_286_1_" x="-1470.8" y="54" class="st2" width="8.4" height="8.4"/>
</g>
<g id="rexicon-32-cart-l" transform="translate(-3191 4981)">
	<circle id="楕円形_16" class="st2" cx="3199.3" cy="-4600" r="1.5"/>
	<circle id="楕円形_17" class="st2" cx="3209.8" cy="-4600" r="1.5"/>
	<path id="パス_251" class="st2" d="M3199-4605.2l-1.9-12.4c-0.2-1.1-1.1-1.9-2.2-1.9h-2.5v1.5h2.5c0.4,0,0.7,0.3,0.8,0.6
		l1.9,12.4c0.2,1.1,1.1,1.9,2.3,1.9h11.4v-1.5h-11.5C3199.4-4604.6,3199.1-4604.9,3199-4605.2L3199-4605.2z"/>
	<path id="パス_252" class="st2" d="M3198.8-4617.3l0.2,1.5h11.4l-0.4,6.1c-0.1,0.8-0.7,1.4-1.5,1.4h-8.3l0.2,1.5h8.1
		c1.6,0,2.9-1.2,3-2.8l0.5-7.7H3198.8z"/>
	<path id="パス_253" class="st0" d="M3191-4621h24v24h-24V-4621z"/>
</g>
<g id="rexicon-32-time-l" transform="translate(-3881 232)">
	<path id="パス_208" class="st2" d="M3893.1,57.5c-5.8,0-10.5,4.7-10.5,10.5s4.7,10.5,10.5,10.5s10.5-4.7,10.5-10.5
		S3898.8,57.5,3893.1,57.5z M3893.1,77c-5,0-9-4-9-9s4-9,9-9s9,4,9,9S3898,77,3893.1,77z"/>
	<path id="パス_209" class="st2" d="M3898,70.8l-5.7-2.4v-7.2h1.5v6.3l4.8,2.1L3898,70.8L3898,70.8z"/>
	<path id="パス_210" class="st0" d="M3881,56h24v24h-24V56z"/>
</g>
<g id="rexicon-32-cart-l_1_" transform="translate(-3191 4981)">
	<circle id="楕円形_16_1_" class="st4" cx="3199.3" cy="-4648" r="1.5"/>
	<circle id="楕円形_17_1_" class="st4" cx="3209.8" cy="-4648" r="1.5"/>
	<path id="パス_251_1_" class="st4" d="M3199-4653.2l-1.9-12.4c-0.2-1.1-1.1-1.9-2.2-1.9h-2.5v1.5h2.5c0.4,0,0.7,0.3,0.8,0.6
		l1.9,12.4c0.2,1.1,1.1,1.9,2.3,1.9h11.4v-1.5h-11.5C3199.4-4652.6,3199.1-4652.9,3199-4653.2L3199-4653.2z"/>
	<path id="パス_252_1_" class="st4" d="M3198.8-4665.3l0.2,1.5h11.4l-0.4,6.1c-0.1,0.8-0.7,1.4-1.5,1.4h-8.3l0.2,1.5h8.1
		c1.6,0,2.9-1.2,3-2.8l0.5-7.7H3198.8z"/>
	<path id="パス_253_1_" class="st0" d="M3191-4669h24v24h-24V-4669z"/>
</g>
<g id="rexicon-32-time-l_1_" transform="translate(-3881 232)">
	<path id="パス_208_1_" class="st4" d="M3893.1,33.5c-5.8,0-10.5,4.7-10.5,10.5s4.7,10.5,10.5,10.5s10.5-4.7,10.5-10.5
		C3903.5,38.2,3898.8,33.5,3893.1,33.5z M3893.1,53c-5,0-9-4-9-9s4-9,9-9s9,4,9,9C3902,48.9,3898,53,3893.1,53z"/>
	<path id="パス_209_1_" class="st4" d="M3898,46.8l-5.7-2.4v-7.2h1.5v6.3l4.8,2.1L3898,46.8L3898,46.8z"/>
	<path id="パス_210_1_" class="st0" d="M3881,32h24v24h-24V32z"/>
</g>
<g id="rexicon-32-point-l" transform="translate(-3196 46)">
	<path id="パス_321" class="st0" d="M3196,26h24v24h-24V26z"/>
	<g>
		<path id="パス_322" class="st1" d="M3208.8,33.7h-3.2v8.9h1.7v-2.9h1.5c1.7,0,3-1.3,3-3C3211.8,35,3210.4,33.7,3208.8,33.7
			L3208.8,33.7z M3208.7,38.1h-1.4v-2.8h1.4c0.7,0,1.4,0.6,1.4,1.4c0,0,0,0,0,0.1C3210,37.4,3209.5,38.1,3208.7,38.1L3208.7,38.1z"
			/>
		<path id="パス_323" class="st1" d="M3208,27.5c-5.8,0-10.5,4.7-10.5,10.5s4.7,10.5,10.5,10.5s10.5-4.7,10.5-10.5
			S3213.8,27.5,3208,27.5z M3208,47c-5,0-9-4-9-9s4-9,9-9s9,4,9,9S3213,47,3208,47z"/>
	</g>
</g>
<g id="rexicon-32-search" transform="translate(-3293 115)">
	<path id="パス_1" class="st5" d="M3302.8-17.5c-4.6,0-8.3,3.7-8.3,8.3s3.7,8.3,8.3,8.3s8.3-3.7,8.3-8.3S3307.3-17.5,3302.8-17.5z
		 M3302.8-2.5c-3.7,0-6.8-3-6.8-6.8s3-6.8,6.8-6.8c3.7,0,6.8,3,6.8,6.8S3306.5-2.5,3302.8-2.5z M3310.2-2.9
		c-0.3,0.4-0.7,0.7-1.1,1.1l5.4,5.4l1.1-1.1L3310.2-2.9z"/>
	<path id="パス_2" class="st0" d="M3293-19h24V5h-24V-19z"/>
</g>
<g>
	<path class="st1" d="M10.4,636.9c0.9,0.9,2.3,0.9,3.2,0l7.9-7.9l0.2-0.2c-0.2-0.7-0.8-1.1-1.4-1.1H3.8c-0.7,0-1.3,0.5-1.4,1.1
		l0.2,0.2L10.4,636.9z M19.2,629.2l-6.7,6.7c-0.3,0.3-0.8,0.3-1.1,0l-6.7-6.7H19.2z"/>
	<path class="st1" d="M20.3,632.4v10.3H3.8v-10.3l-1.5-1.5v11.8c0,0.8,0.7,1.5,1.5,1.5h16.5c0.8,0,1.5-0.7,1.5-1.5v-11.8L20.3,632.4
		z"/>
	<path class="st0" d="M0,624h24v24H0V624z"/>
</g>
<g>
	<path class="st0" d="M0,576h24v24H0V576z"/>
	<circle class="st1" cx="12" cy="592.9" r="1.1"/>
	<path class="st1" d="M12,577.5c-5.8,0-10.5,4.7-10.5,10.5s4.7,10.5,10.5,10.5s10.5-4.7,10.5-10.5S17.8,577.5,12,577.5z M12,597
		c-5,0-9-4-9-9s4-9,9-9s9,4,9,9C21,592.9,17,597,12,597z"/>
	<path class="st1" d="M12,582c-1.9,0-3.4,1.5-3.4,3.4v0.4h1.5v-0.4c0-1,0.8-1.9,1.9-1.9s1.9,0.8,1.9,1.9c0,1-0.8,1.9-1.9,1.9
		c-0.4,0-0.8,0.3-0.8,0.8v2.3h1.5v-1.6c1.8-0.4,2.9-2.2,2.5-4.1C14.9,583.1,13.6,582,12,582z"/>
</g>
<g>
	<path class="st1" d="M20.3,602.2H3.8c-0.8,0-1.5,0.7-1.5,1.5v13.5c0,0.8,0.7,1.5,1.5,1.5H9l3,3l3-3h5.3c0.8,0,1.5-0.7,1.5-1.5
		v-13.5C21.8,602.9,21.1,602.2,20.3,602.2z M20.3,617.2h-5.9l-0.4,0.4l-1.9,1.9l-1.9-1.9l-0.4-0.4h-6v-13.5h16.5L20.3,617.2z"/>
	<path class="st1" d="M6.8,606.7h10.5v1.5H6.8V606.7z M6.8,609.7h10.5v1.5H6.8V609.7z M6.8,612.7H12v1.5H6.8V612.7z"/>
	<path class="st0" d="M0,600h24v24H0V600z"/>
</g>
<g id="rexicon-32-cart-l_2_" transform="translate(-3191 4981)">
	<circle id="楕円形_16_2_" cx="3199.3" cy="-4624.1" r="1.5"/>
	<circle id="楕円形_17_2_" cx="3209.8" cy="-4624.1" r="1.5"/>
	<path id="パス_251_2_" d="M3199-4629.3l-1.9-12.4c-0.2-1.1-1.1-1.9-2.2-1.9h-2.5v1.5h2.5c0.4,0,0.7,0.3,0.8,0.6l1.9,12.4
		c0.2,1.1,1.1,1.9,2.3,1.9h11.4v-1.5h-11.5C3199.4-4628.7,3199.1-4629,3199-4629.3L3199-4629.3z"/>
	<path id="パス_252_2_" d="M3198.8-4641.4l0.2,1.5h11.4l-0.4,6.1c-0.1,0.8-0.7,1.4-1.5,1.4h-8.3l0.2,1.5h8.1c1.6,0,2.9-1.2,3-2.8
		l0.5-7.7H3198.8z"/>
	<path id="パス_253_2_" class="st0" d="M3191-4645.1h24v24h-24V-4645.1z"/>
</g>
<g>
	<path class="st3" d="M6,232.5v-12.7l4.5,2.7v-1.7l-3.8-2.3c-0.2-0.1-0.5-0.2-0.8-0.2c-0.8,0-1.5,0.7-1.5,1.5v12.7
		c0,0.5,0.3,1,0.8,1.3l5.3,3.2v-1.7L6,232.5z M18,218.3c-0.3,0-0.5,0.1-0.8,0.2l-5.3,3.1v16.1l6.8-4.1c0.5-0.3,0.7-0.8,0.8-1.3
		v-12.7C19.5,219,18.8,218.3,18,218.3z"/>
	<path class="st0" d="M0,216.1h24v24H0V216.1z"/>
</g>
<g id="ic_list_black_36px_2_" transform="translate(1523.224 390)">
	<path id="パス_19_2_" class="st0" d="M-1523.2,66h24v24h-24V66z"/>
	<rect id="長方形_288_2_" x="-1520.2" y="68.4" class="st4" width="4.5" height="4.5"/>
	<rect id="長方形_289_2_" x="-1520.2" y="75.2" class="st4" width="4.5" height="4.5"/>
	<rect id="長方形_290_2_" x="-1520.2" y="81.8" class="st4" width="4.5" height="4.5"/>
	<rect id="長方形_291_2_" x="-1514.5" y="83" class="st4" width="12.3" height="2.2"/>
	<rect id="長方形_292_2_" x="-1514.5" y="76.3" class="st4" width="12.3" height="2.2"/>
	<rect id="長方形_293_2_" x="-1514.5" y="69.5" class="st4" width="12.3" height="2.2"/>
</g>
<g id="ic_list_black_36px_3_" transform="translate(1523.224 390)">
	<path id="パス_19_3_" class="st0" d="M-1523.2,90h24v24h-24V90z"/>
	<rect id="長方形_288_3_" x="-1520.2" y="92.4" class="st2" width="4.5" height="4.5"/>
	<rect id="長方形_289_3_" x="-1520.2" y="99.2" class="st2" width="4.5" height="4.5"/>
	<rect id="長方形_290_3_" x="-1520.2" y="105.8" class="st2" width="4.5" height="4.5"/>
	<rect id="長方形_291_3_" x="-1514.5" y="107" class="st2" width="12.3" height="2.2"/>
	<rect id="長方形_292_3_" x="-1514.5" y="100.3" class="st2" width="12.3" height="2.2"/>
	<rect id="長方形_293_3_" x="-1514.5" y="93.5" class="st2" width="12.3" height="2.2"/>
</g>
<g>
	<path class="st4" d="M19.5,789h-15v-18h9v-1.5h-9c-0.8,0-1.5,0.7-1.5,1.5v18c0,0.8,0.7,1.5,1.5,1.5h15c0.8,0,1.5-0.7,1.5-1.5v-12
		h-1.5V789z"/>
	<path class="st4" d="M16.5,775.5H21l-6-6v4.5C15,774.8,15.7,775.5,16.5,775.5z M8,778.5H6v5.3h1V782h1c1,0,1.7-0.8,1.7-1.7
		C9.8,779.3,9,778.5,8,778.5z M8,780.9H7v-1.4h1c0.4,0,0.7,0.3,0.7,0.7C8.7,780.6,8.4,780.9,8,780.9z M12,778.5h-1.5v5.3H12
		c1.2,0,2.3-1,2.3-2.3v-0.8C14.3,779.5,13.2,778.5,12,778.5z M13.2,781.5c0,0.7-0.5,1.2-1.2,1.2l0,0h-0.4v-3.2H12
		c0.7,0,1.2,0.5,1.2,1.2V781.5z M18,779.5v-1h-3v5.3h1v-2h1.7v-1H16v-1.2L18,779.5L18,779.5z"/>
	<path class="st0" d="M0,768h24v24H0V768z"/>
</g>
<g>
	<path class="st2" d="M19.5,813h-15v-18h9v-1.5h-9c-0.8,0-1.5,0.7-1.5,1.5v18c0,0.8,0.7,1.5,1.5,1.5h15c0.8,0,1.5-0.7,1.5-1.5v-12
		h-1.5V813z"/>
	<path class="st2" d="M16.5,799.5H21l-6-6v4.5C15,798.9,15.7,799.5,16.5,799.5z M8,802.5H6v5.3h1V806h1c1,0,1.7-0.8,1.7-1.7
		S9,802.5,8,802.5z M8,804.9H7v-1.4h1c0.4,0,0.7,0.3,0.7,0.7S8.4,804.9,8,804.9z M12,802.5h-1.5v5.3H12c1.2,0,2.3-1,2.3-2.3v-0.8
		C14.3,803.5,13.2,802.5,12,802.5z M13.2,805.5c0,0.7-0.5,1.2-1.2,1.2l0,0h-0.5v-3.2H12c0.7,0,1.2,0.5,1.2,1.2V805.5z M18,803.6v-1
		h-3v5.3h1v-2h1.7v-1H16v-1.2L18,803.6L18,803.6z"/>
	<path class="st0" d="M0,792h24v24H0V792z"/>
</g>
<g>
	<path class="st1" d="M19.5,837h-15v-18h9v-1.5h-9c-0.8,0-1.5,0.7-1.5,1.5v18c0,0.8,0.7,1.5,1.5,1.5h15c0.8,0,1.5-0.7,1.5-1.5v-12
		h-1.5V837z"/>
	<path class="st1" d="M16.5,823.5H21l-6-6v4.5C15,822.9,15.7,823.5,16.5,823.5z M8,826.5H6v5.3h1V830h1c1,0,1.7-0.8,1.7-1.7
		S9,826.5,8,826.5z M8,828.9H7v-1.4h1c0.4,0,0.7,0.3,0.7,0.7S8.4,828.9,8,828.9z M12,826.5h-1.5v5.3H12c1.2,0,2.3-1,2.3-2.3v-0.8
		C14.3,827.5,13.2,826.5,12,826.5z M13.2,829.5c0,0.7-0.5,1.2-1.2,1.2l0,0h-0.5v-3.2H12c0.7,0,1.2,0.5,1.2,1.2V829.5z M18,827.6v-1
		h-3v5.3h1v-2h1.7v-1H16v-1.2L18,827.6L18,827.6z"/>
	<path class="st0" d="M0,816h24v24H0V816z"/>
</g>
<g>
	<rect x="3.3" y="843.3" class="st5" width="18.1" height="20.7"/>
	<path class="st6" d="M21.8,840H2.3C1,840,0,841,0,842.3v19.5c0,1.2,1,2.3,2.3,2.3H12v-10.5H9v-3h3V849c0-2.5,2-4.5,4.5-4.5h3v3h-3
		c-0.8,0-1.5,0.7-1.5,1.5v1.5h4.5l-0.8,3H15V864h6.8c1.2,0,2.3-1,2.3-2.3v-19.5C24,841,23,840,21.8,840z"/>
</g>
<g>
	<path class="st7" d="M24,864.1H0v24h24V864.1z"/>
	<path class="st5" d="M20.7,870.7c-0.6,0.3-1.3,0.5-2.1,0.6c0.7-0.4,1.3-1.1,1.6-2c-0.7,0.4-1.5,0.7-2.3,0.9
		c-0.7-0.7-1.6-1.1-2.6-1.1c-2,0-3.6,1.6-3.6,3.6c0,0.3,0,0.6,0.1,0.8c-3-0.2-5.6-1.6-7.4-3.7c-0.3,0.5-0.5,1.1-0.5,1.8
		c0,1.2,0.6,2.3,1.6,3c-0.6,0-1.1-0.2-1.6-0.4l0,0c0,1.7,1.2,3.2,2.9,3.5c-0.3,0.1-0.6,0.1-0.9,0.1c-0.2,0-0.5,0-0.7-0.1
		c0.5,1.4,1.8,2.5,3.3,2.5c-1.2,1-2.8,1.5-4.4,1.5c-0.3,0-0.6,0-0.9-0.1c1.6,1,3.5,1.6,5.5,1.6c6.6,0,10.2-5.5,10.2-10.2
		c0-0.2,0-0.3,0-0.5C19.6,872.1,20.3,871.5,20.7,870.7L20.7,870.7z"/>
</g>
<g>
	
		<linearGradient id="SVGID_1_" gradientUnits="userSpaceOnUse" x1="12" y1="1128" x2="12" y2="1152" gradientTransform="matrix(1 0 0 -1 0 2040)">
		<stop  offset="0" style="stop-color:#623588"/>
		<stop  offset="1" style="stop-color:#914CCD"/>
	</linearGradient>
	<rect y="888" class="st8" width="24" height="24"/>
	<path class="st5" d="M18.2,894.2c-0.4-0.4-2.1-1.6-5.9-1.6c0,0-4.5-0.3-6.6,1.7c-1.2,1.2-1.6,3-1.7,5.2c0,2.2-0.1,6.3,3.9,7.4l0,0
		v1.7c0,0,0,0.7,0.4,0.8c0.5,0.2,0.9-0.4,1.4-0.9c0.3-0.3,0.7-0.8,1-1.1c2.7,0.2,4.8-0.3,5-0.4c0.5-0.2,3.6-0.6,4.1-4.7
		C20.4,898.1,19.6,895.4,18.2,894.2z M18.7,902c-0.4,3.4-2.9,3.6-3.4,3.8c-0.2,0.1-2,0.5-4.3,0.4c0,0-1.7,2.1-2.2,2.6
		c-0.1,0.1-0.2,0.1-0.2,0.1c-0.1,0-0.1-0.1-0.1-0.3v-2.8c-3.3-0.9-3.2-4.4-3.1-6.3c0-1.8,0.4-3.3,1.4-4.3c1.8-1.7,5.6-1.4,5.6-1.4
		c3.2,0,4.7,1,5.1,1.3C18.5,896.1,19.1,898.5,18.7,902z M12.6,902.2c0,0,0.3,0,0.5-0.2l0.3-0.4c0.2-0.2,0.5-0.3,0.9-0.1
		c0.5,0.3,1.1,0.7,1.5,1.1c0.2,0.2,0.3,0.5,0.1,0.8l0,0c-0.2,0.3-0.4,0.6-0.7,0.8l0,0c-0.3,0.3-0.7,0.4-1,0.3l0,0
		c-0.7-0.2-2.3-1-3.4-1.9c-1.7-1.3-2.9-3.6-3.3-4.8l0,0c-0.1-0.4,0-0.7,0.3-1l0,0c0.3-0.3,0.5-0.5,0.8-0.7l0,0
		c0.3-0.2,0.6-0.1,0.8,0.1c0.3,0.3,0.7,0.9,1.1,1.5c0.2,0.4,0.1,0.7-0.1,0.9L10,899c-0.2,0.2-0.2,0.5-0.2,0.5S10.4,901.7,12.6,902.2
		z M16.1,900.4c0.1,0,0.2-0.1,0.2-0.2c0-1.4-0.4-2.5-1.3-3.3c-0.8-0.8-1.9-1.2-3.1-1.2l0,0c-0.1,0-0.2,0.1-0.2,0.2
		c0,0.1,0.1,0.2,0.2,0.2c1.1,0,2.1,0.4,2.8,1.1c0.8,0.7,1.1,1.8,1.1,3C15.9,900.3,16,900.4,16.1,900.4L16.1,900.4z M15,899.9
		L15,899.9c-0.1,0-0.2-0.1-0.2-0.2c0-0.7-0.2-1.3-0.6-1.8c-0.4-0.5-1.1-0.7-1.9-0.8c-0.1,0-0.2-0.1-0.2-0.2c0-0.1,0.1-0.2,0.2-0.2
		c0.9,0.1,1.6,0.4,2.1,0.9c0.5,0.6,0.8,1.3,0.7,2.1C15.2,899.9,15.1,899.9,15,899.9z M13.9,899.6c-0.1,0-0.2-0.1-0.2-0.2
		c0-0.7-0.4-1.1-1.1-1.1c-0.1,0-0.2-0.1-0.2-0.2c0-0.1,0.1-0.2,0.2-0.2c0.9,0,1.4,0.6,1.5,1.5C14.1,899.5,14,899.6,13.9,899.6
		L13.9,899.6z"/>
</g>
<g>
	<path class="st9" d="M4.9,912h14.2c2.7,0,4.9,2.2,4.9,4.9v14.2c0,2.7-2.2,4.9-4.9,4.9H4.9c-2.7,0-4.9-2.2-4.9-4.9v-14.2
		C0,914.2,2.2,912,4.9,912z"/>
	<path class="st5" d="M12,916c4.9,0,8.8,3.2,8.8,7.1c0,1.4-0.5,2.6-1.3,3.7c0,0.1-0.1,0.1-0.2,0.2l0,0c-0.3,0.3-0.6,0.7-1,1
		c-2.4,2.3-6.4,4.9-7,4.5c-0.5-0.4,0.8-2.1-0.6-2.4c-0.1,0-0.2,0-0.3,0l0,0l0,0c-4.1-0.6-7.3-3.5-7.3-6.9C3.2,919.1,7.1,916,12,916
		L12,916z"/>
	<path class="st9" d="M6.9,925.3h1.8c0.3,0,0.5-0.2,0.5-0.5l0,0c0-0.3-0.2-0.5-0.5-0.5H7.4v-2.9c0-0.3-0.2-0.5-0.5-0.5l0,0
		c-0.3,0-0.5,0.2-0.5,0.5v3.4C6.4,925.1,6.6,925.3,6.9,925.3z M17.9,923.1L17.9,923.1c0-0.3-0.2-0.5-0.5-0.5h-1.3v-0.7h1.3
		c0.3,0,0.5-0.2,0.5-0.5l0,0c0-0.3-0.2-0.5-0.5-0.5h-1.8c-0.3,0-0.5,0.2-0.5,0.5v3.4c0,0.3,0.2,0.5,0.5,0.5h1.8
		c0.3,0,0.5-0.2,0.5-0.5l0,0c0-0.3-0.2-0.5-0.5-0.5h-1.3v-0.7h1.3C17.7,923.6,17.9,923.4,17.9,923.1L17.9,923.1z M14.5,925.1
		L14.5,925.1c0.1-0.1,0.1-0.2,0.1-0.3v-3.4c0-0.3-0.2-0.5-0.5-0.5l0,0c-0.3,0-0.5,0.2-0.5,0.5v2l-1.7-2.2c-0.1-0.1-0.2-0.2-0.4-0.2
		l0,0c-0.3,0-0.5,0.2-0.5,0.5v3.4c0,0.3,0.2,0.5,0.5,0.5l0,0c0.3,0,0.5-0.2,0.5-0.5v-2l1.7,2.3l0,0l0,0c0,0.1,0.1,0.1,0.2,0.1
		c0.1,0,0.1,0,0.2,0l0,0c0.1,0,0.1,0,0.2-0.1C14.4,925.2,14.4,925.2,14.5,925.1L14.5,925.1z M9.9,925.3L9.9,925.3
		c0.3,0,0.5-0.2,0.5-0.5v-3.4c0-0.3-0.2-0.5-0.5-0.5l0,0c-0.3,0-0.5,0.2-0.5,0.5v3.4C9.5,925.1,9.7,925.3,9.9,925.3L9.9,925.3z"/>
</g>
<g>
	<path class="st1" d="M10.5,942.8H9v2.3H6.8v1.5H9v2.3h1.5v-2.3h2.3V945h-2.3V942.8z"/>
	<path class="st1" d="M9.8,937.5c-4.6,0-8.3,3.7-8.3,8.3s3.7,8.3,8.3,8.3s8.3-3.7,8.3-8.3S14.3,937.5,9.8,937.5z M9.8,952.5
		c-3.7,0-6.8-3-6.8-6.8s3-6.8,6.8-6.8s6.8,3,6.8,6.8S13.5,952.5,9.8,952.5z M17.1,952.1c-0.3,0.4-0.7,0.7-1.1,1.1l5.4,5.4l1.1-1.1
		L17.1,952.1z"/>
	<path class="st0" d="M0,936h24v24H0V936z"/>
</g>
<g>
	<path id="__1_" class="st10" d="M12,991.4l7,11.6H5L12,991.4 M12,986.4l-11.5,19.1h23L12,986.4z"/>
</g>
<g id="_" transform="translate(-9824 12905)">
	<path id="_2" class="st11" d="M9836-11944.2c-6.2,0-11.2,5-11.2,11.2s5,11.2,11.2,11.2s11.2-5,11.2-11.2
		S9842.3-11944.2,9836-11944.2C9836.1-11944.2,9836-11944.2,9836-11944.2z M9836-11924.3c-4.8,0-8.7-3.9-8.7-8.7s3.9-8.7,8.7-8.7
		s8.7,3.9,8.7,8.7l0,0c0,4.8-3.8,8.7-8.6,8.7C9836.1-11924.3,9836-11924.3,9836-11924.3z"/>
</g>
<g id="X" transform="translate(-9811 12649)">
	<path id="__2_" class="st12" d="M9834-11637.8l-2-2l-8.8,8.8l-8.8-8.8l-2,2l8.8,8.8l-8.8,8.8l2,2l8.8-8.8l8.8,8.8l2-2l-8.8-8.8
		L9834-11637.8z"/>
</g>
<g>
	<path id="__4_" class="st1" d="M22.8,1035.3l-2-2L12,1042l-8.8-8.8l-2,2l8.8,8.8l-8.8,8.8l2,2l8.8-8.8l8.8,8.8l2-2L14,1044
		L22.8,1035.3z"/>
</g>
<g id="グループ化_452_1_" transform="translate(-2336 -1289)">
	<circle id="楕円形_30_1_" class="st13" cx="2348" cy="2045" r="12"/>
	<g id="グループ化_357_1_" transform="translate(-1 -2962)">
		<path id="パス_410_1_" class="st5" d="M2343.7,5005.3l0.6,0.6l4.7-4.7l4.7,4.7l0.6-0.6l-5.3-5.3L2343.7,5005.3z"/>
		<g class="st14">
			<path class="st5" d="M2345.8,5013.4h2c0.3,0,0.7,0,0.9-0.1v0.8c-0.3-0.1-0.6-0.1-0.9-0.1h-4.3c-0.3,0-0.6,0-1,0.1v-0.8
				c0.3,0,0.6,0.1,1,0.1h1.5v-4.4c0-0.3,0-0.5-0.1-0.8h0.9c-0.1,0.2-0.1,0.5-0.1,0.8v1.2h1.6c0.3,0,0.6,0,0.8-0.1v0.8
				c-0.2,0-0.5-0.1-0.8-0.1h-1.6L2345.8,5013.4L2345.8,5013.4z"/>
			<path class="st5" d="M2349.2,5011.6c0.3-0.2,0.6-0.5,1.5-1.7c0.2-0.2,0.3-0.3,0.4-0.5c0.2-0.1,0.4-0.2,0.6-0.2
				c0.2,0,0.4,0.1,0.6,0.3c0.1,0.1,0.2,0.2,0.5,0.5c0.6,0.7,1.3,1.4,2.1,2.1c0.3,0.3,0.5,0.5,0.7,0.6l-0.4,1
				c-0.1-0.1-0.1-0.1-0.2-0.2c-0.3-0.3-0.9-0.9-1.4-1.3c-0.5-0.5-0.5-0.6-1.3-1.4c-0.4-0.5-0.5-0.5-0.6-0.5s-0.2,0.1-0.4,0.3
				c-0.6,0.7-0.9,1.2-1.4,1.7c-0.1,0.1-0.1,0.1-0.2,0.2L2349.2,5011.6z"/>
		</g>
	</g>
</g>
<g id="rexicon-32-cart-l_3_" transform="translate(-3191 4981)">
	<circle id="楕円形_16_3_" class="st5" cx="3199.3" cy="-4576" r="1.5"/>
	<circle id="楕円形_17_3_" class="st5" cx="3209.8" cy="-4576" r="1.5"/>
	<path id="パス_251_3_" class="st5" d="M3199-4581.2l-1.9-12.4c-0.2-1.1-1.1-1.9-2.2-1.9h-2.5v1.5h2.5c0.4,0,0.7,0.3,0.8,0.6
		l1.9,12.4c0.2,1.1,1.1,1.9,2.3,1.9h11.4v-1.5h-11.5C3199.4-4580.6,3199.1-4580.9,3199-4581.2L3199-4581.2z"/>
	<path id="パス_252_3_" class="st5" d="M3198.8-4593.3l0.2,1.5h11.4l-0.4,6.1c-0.1,0.8-0.7,1.4-1.5,1.4h-8.3l0.2,1.5h8.1
		c1.6,0,2.9-1.2,3-2.8l0.5-7.7H3198.8z"/>
	<path id="パス_253_3_" class="st0" d="M3191-4597h24v24h-24V-4597z"/>
</g>
<g id="rexicon-32-new-user-f" transform="translate(-5029 13397)">
	<path id="パス_517" class="st1" d="M5035-13140.8v-11.6l4.5,2.5v-1.6l-3.8-2.1c-0.2-0.1-0.5-0.2-0.8-0.2c-0.8,0-1.5,0.6-1.5,1.4
		v11.6c0,0.5,0.3,1,0.8,1.2l5.3,2.9v-1.6L5035-13140.8z M5047.1-13153.9c-0.3,0-0.5,0.1-0.8,0.2l-5.3,2.9v14.9l6.8-3.7
		c0.4-0.2,0.7-0.7,0.8-1.2v-11.6C5048.6-13153.3,5047.9-13153.9,5047.1-13153.9z"/>
	<path id="パス_518" class="st0" d="M5029-13156.9h24v24h-24V-13156.9z"/>
</g>
<g id="rexicon-32-rakuten-account-l" transform="translate(-5029 13307)">
	<path id="パス_521" class="st0" d="M5029-12155h24v24h-24V-12155z"/>
	<path id="パス_522" class="st1" d="M5047.9-12140.9c-1.1-0.9-2.4-1.7-3.7-2.3c-0.2-0.1-0.3-0.3-0.4-0.5c0-0.2,0-0.4,0.2-0.6
		c1-1,1.6-1.9,1.6-4.2c0-1.1-0.4-2.2-1.3-3s-2.1-1.2-3.3-1.2c-1.2-0.1-2.4,0.4-3.3,1.2c-0.8,0.8-1.3,1.8-1.3,3
		c0,2.3,0.5,3.2,1.6,4.2c0.2,0.1,0.2,0.4,0.2,0.6c0,0.2-0.2,0.4-0.4,0.5c-1.3,0.6-2.5,1.4-3.7,2.3c-1.3,1.2-1.5,3.8-1.5,6.2
		c0,0.8,0.7,1.4,1.5,1.4h13.6c0.8,0,1.5-0.6,1.5-1.4C5049.3-12137.2,5049.1-12139.8,5047.9-12140.9z M5034.3-12134.7
		c0-1.1,0.1-4.3,1.1-5.2c1-0.8,2.1-1.5,3.3-2.1c0.6-0.3,1-0.8,1.1-1.5c0.1-0.6-0.1-1.3-0.6-1.7c-0.7-0.7-1.2-1.2-1.2-3.2
		c0-0.8,0.3-1.5,0.8-2c0.6-0.5,1.4-0.8,2.2-0.8c0.8-0.1,1.6,0.2,2.2,0.8c0.6,0.5,0.9,1.2,0.8,2c0,2-0.4,2.5-1.2,3.2
		c-0.5,0.4-0.7,1.1-0.6,1.7c0.1,0.6,0.5,1.2,1.1,1.5c1.2,0.6,2.3,1.3,3.3,2.1c1,0.9,1.1,4.2,1.1,5.2H5034.3z"/>
</g>
<g id="グループ化_511" transform="translate(-5029 13130)">
	<path id="パス_501" class="st1" d="M5041.1-11951.8l-10.5,10.5h3v7.5c0,0.8,0.7,1.5,1.5,1.5l0,0h1.5v-1.5h-1.5v-9h-0.9l6.9-6.9
		l6.9,6.9h-0.9v9h-1.5v1.5h1.5c0.8,0,1.5-0.7,1.5-1.5l0,0v-7.5h3L5041.1-11951.8z"/>
	<path id="パス_502" class="st1" d="M5042.6-11939.8h-3c-0.8,0-1.5,0.7-1.5,1.5v6h6v-6
		C5044.1-11939.1,5043.4-11939.8,5042.6-11939.8z M5042.6-11933.8h-3v-4.5h3V-11933.8z"/>
	<path id="パス_503" class="st0" d="M5029.1-11954h24v24h-24V-11954z"/>
</g>
<g id="rexicon-32-building-l" transform="translate(-5589 13398)">
	<path id="パス_485" class="st1" d="M5601-12300.7c-1.7,0-3,1.3-3,3l0,0v2.3h6v-2.3C5604-12299.3,5602.7-12300.7,5601-12300.7
		L5601-12300.7z M5602.5-12296.9h-3v-0.8c0-0.8,0.7-1.5,1.5-1.5s1.5,0.7,1.5,1.5V-12296.9z M5596.5-12312.7h1.5v2.3h-1.5V-12312.7z
		 M5600.3-12312.7h1.5v2.3h-1.5V-12312.7z M5604-12312.7h1.5v2.3h-1.5V-12312.7z M5596.5-12308.9h1.5v2.3h-1.5V-12308.9z
		 M5600.3-12308.9h1.5v2.3h-1.5V-12308.9z M5604-12308.9h1.5v2.3h-1.5V-12308.9z M5596.5-12305.2h1.5v2.3h-1.5V-12305.2z
		 M5600.3-12305.2h1.5v2.3h-1.5V-12305.2z M5604-12305.2h1.5v2.3h-1.5V-12305.2z"/>
	<path id="パス_486" class="st1" d="M5607.8-12316.4h-13.5c-0.8,0-1.5,0.7-1.5,1.5v18c0,0.8,0.7,1.5,1.5,1.5h2.3v-1.5h-2.3v-18
		h13.5v18h-2.2v1.5h2.3c0.8,0,1.5-0.7,1.5-1.5v-18C5609.2-12315.8,5608.6-12316.4,5607.8-12316.4z"/>
	<path id="パス_487" class="st0" d="M5589-12317.9h24v24h-24V-12317.9z"/>
</g>
<g id="rexicon-32-check" transform="translate(-9125 14395)">
	<path id="パス_392" class="st0" d="M9125-13338.9h24v24h-24V-13338.9z"/>
	<path id="パス_393" class="st5" d="M9147.5-13333.7l-1.1-1.1l-13.2,13.2l-5.7-5.7l-1.1,1.1l6.8,6.8L9147.5-13333.7z"/>
</g>
<g id="グループ化_509" transform="translate(-5589 13128)">
	<path id="パス_496" class="st0" d="M5589-11904h24v24h-24V-11904z"/>
	<path id="パス_497" class="st1" d="M5607.8-11898h-3v1.5h2.1l0.8,1.5h-1.3v4.5h3.6l0.2,0.4v4.9h-0.1c-0.4-1.2-1.7-1.8-2.9-1.3
		c-0.6,0.2-1.1,0.7-1.3,1.3h-0.9v1.5h0.9c0.4,1.2,1.7,1.8,2.9,1.3c0.6-0.2,1.1-0.7,1.3-1.3h0.1c0.8,0,1.5-0.7,1.5-1.5v-5.3
		L5607.8-11898z M5607.8-11883.8c-0.4,0-0.7-0.3-0.7-0.8c0-0.4,0.3-0.7,0.8-0.7c0.4,0,0.7,0.3,0.7,0.8
		S5608.2-11883.7,5607.8-11883.8L5607.8-11883.8z M5601.8-11901h-9c-0.8,0-1.5,0.7-1.5,1.5v14.3c0,0.8,0.7,1.5,1.5,1.5h1.6
		c0.4,1.2,1.7,1.8,2.9,1.3c0.6-0.2,1.1-0.7,1.3-1.3h4.7v-15.8C5603.3-11900.3,5602.6-11901,5601.8-11901z M5596.5-11883.8
		c-0.4,0-0.7-0.3-0.7-0.8c0-0.4,0.3-0.7,0.8-0.7c0.4,0,0.7,0.3,0.7,0.8S5596.9-11883.7,5596.5-11883.8L5596.5-11883.8z
		 M5601.8-11885.3h-3.1c-0.4-1.2-1.7-1.8-2.9-1.3c-0.6,0.2-1.1,0.7-1.3,1.3h-1.6v-14.3h9L5601.8-11885.3z"/>
</g>
<g id="rexicon-32-login-l" transform="translate(-14659.055 -1395)">
	<path id="パス_495_1_" class="st0" d="M14659.1,2523h24v24h-24V2523z"/>
	<path id="パス_496_1_" class="st1" d="M14678.6,2524.5h-11.2c-0.8,0-1.5,0.7-1.5,1.5l0,0v18c0,0.8,0.7,1.5,1.5,1.5l0,0h11.2
		c0.8,0,1.5-0.7,1.5-1.5l0,0v-18C14680.1,2525.2,14679.4,2524.5,14678.6,2524.5L14678.6,2524.5z M14678.6,2544h-11.2v-8.3h4.6
		l-1.9,1.9l1.1,1.1l3.7-3.8l-3.7-3.7l-1.1,1.1l1.9,1.9h-4.6v-8.2h11.2V2544z M14660.6,2534.3h3.8v1.5h-3.8V2534.3z"/>
</g>
<path id="パス_625" class="st1" d="M20.1,1254.6l-3-3.1c-0.6-0.6-1.6-0.6-2.2,0l0,0l-1.1,1.1l1.1,1.1l1.1-1.1l3,3.1l-1.1,1.1
	l1.1,1.1l1.1-1.1C20.7,1256.2,20.7,1255.2,20.1,1254.6L20.1,1254.6z M17.9,1259.1l-1.1-1.1l-4.1-4.2l-9,9.3l-1.5,6.9l6.7-1.5
	L17.9,1259.1z M8.9,1266.1l-3-3.1l6.8-7.1l3,3.1L8.9,1266.1z M5,1264.3l2.6,2.7l-3.4,0.8L5,1264.3z"/>
<g id="グループ化_513_1_" transform="translate(-5029 13217)">
	<path id="パス_510_1_" class="st1" d="M5046-11918.7c-1.9,0-3.8,1-4.9,2.7c-1.4-2.2-3.9-3.3-6.3-2.6s-4.2,2.9-4.2,5.4
		c-0.1,7.3,10.3,13.9,10.3,13.9s10.6-6.4,10.7-13.7C5051.6-11916.1,5049.1-11918.7,5046-11918.7L5046-11918.7z"/>
	<path id="パス_511_1_" class="st0" d="M5029-11921h24v24h-24V-11921z"/>
</g>
<g>
	<path id="__3_" class="st1" d="M13,1323h-1.9v8.1H2.9v1.9H11v8.1h1.9v-8.1H21v-1.9h-8.1L13,1323z"/>
</g>
<g id="rexicon-32-time-l_2_" transform="translate(-3881 232)">
	<path id="パス_208_2_" class="st5" d="M3893.1,1113.5c-5.8,0-10.5,4.7-10.5,10.5s4.7,10.5,10.5,10.5s10.5-4.7,10.5-10.5
		C3903.5,1118.2,3898.8,1113.5,3893.1,1113.5z M3893.1,1133c-5,0-9-4-9-9s4-9,9-9s9,4,9,9C3902,1128.9,3898,1133,3893.1,1133z"/>
	<path id="パス_209_2_" class="st5" d="M3898,1126.8l-5.7-2.4v-7.2h1.5v6.3l4.8,2.1L3898,1126.8L3898,1126.8z"/>
	<path id="パス_210_2_" class="st0" d="M3881,1112h24v24h-24V1112z"/>
</g>
<g>
	<path class="st1" d="M17.5,1117.4c-2.3,0-4.2,1.9-4.2,4.2c0,2.3,1.9,4.2,4.2,4.2s4.2-1.9,4.2-4.2S19.8,1117.4,17.5,1117.4z
		 M17.5,1124.3c-1.3,0-2.4-0.9-2.7-2.1h5.3C19.9,1123.5,18.8,1124.3,17.5,1124.3z M14.9,1120.9c0.4-1.5,1.9-2.4,3.4-2
		c1,0.2,1.7,1,2,2H14.9z"/>
	<path class="st1" d="M3.7,1124.4c0-1.1,0.1-4.3,1-5.3c0.9-0.8,2-1.5,3.1-2.1c1-0.6,1.4-1.8,0.8-2.8c-0.1-0.1-0.2-0.3-0.3-0.4
		c-0.7-0.7-1.1-1.2-1.1-3.3c-0.1-1.4,1-2.7,2.4-2.8c0.1,0,0.2,0,0.3,0c1.4-0.1,2.7,1,2.8,2.4c0,0.1,0,0.2,0,0.3c0,2-0.4,2.5-1.1,3.3
		c-0.8,0.8-0.7,2.1,0.1,2.9c0.1,0.1,0.3,0.2,0.4,0.3c0.5,0.3,1,0.6,1.4,0.8c0.3-0.4,0.7-0.7,1.1-0.9c-0.7-0.4-1.3-0.8-1.8-1.1
		c-0.3-0.2-0.4-0.6-0.3-0.9c0-0.1,0.1-0.1,0.1-0.1c1-1,1.4-1.9,1.4-4.2c0.1-2.2-1.6-4.1-3.8-4.2c-0.1,0-0.2,0-0.3,0
		c-2.2-0.1-4.1,1.6-4.2,3.8c0,0.1,0,0.2,0,0.3c0,2.3,0.5,3.2,1.4,4.2c0.3,0.3,0.3,0.7,0,1l-0.1,0.1c-1.2,0.6-2.3,1.4-3.4,2.3
		c-1.2,1.2-1.3,3.8-1.4,6.2c0,0.8,0.6,1.4,1.4,1.4l0,0h10.2c-0.5-0.4-0.8-0.9-1.1-1.4L3.7,1124.4z"/>
</g>
<g>
	<rect y="696" class="st0" width="24" height="24"/>
	<g>
		<path class="st1" d="M20.2,698.3H3.7c-0.8,0-1.5,0.7-1.5,1.5v13.5c0,0.8,0.7,1.5,1.5,1.5h4.5l3.8,3.8l3.8-3.8h4.5
			c0.8,0,1.5-0.7,1.5-1.5v-13.5C21.7,698.9,21,698.3,20.2,698.3z M20.2,713.3h-5.1l-3.1,3.1l-3.1-3.1H3.7v-13.5h16.5V713.3z"/>
		<rect x="11.2" y="701.3" class="st1" width="1.5" height="6.8"/>
		<circle class="st1" cx="12" cy="710.6" r="1.1"/>
	</g>
</g>
<g>
	<g>
		<path class="st1" d="M18,1276.5c0-0.8-0.7-1.5-1.5-1.5H15c-0.8,0-1.5,0.7-1.5,1.5H2.2v1.5h11.3c0,0.8,0.7,1.5,1.5,1.5h1.5
			c0.8,0,1.5-0.7,1.5-1.5h3.8v-1.5H18z M16.5,1278H15v-1.5h1.5V1278z"/>
		<path class="st1" d="M16.5,1288.5H15c-0.8,0-1.5,0.7-1.5,1.5H2.2v1.5h11.3c0,0.8,0.7,1.5,1.5,1.5h1.5c0.8,0,1.5-0.7,1.5-1.5h3.8
			v-1.5H18C18,1289.2,17.3,1288.5,16.5,1288.5z M16.5,1291.5H15v-1.5h1.5V1291.5z"/>
		<path class="st1" d="M8.2,1281.7H6.7c-0.8,0-1.5,0.7-1.5,1.5h-3v1.5h3c0,0.8,0.7,1.5,1.5,1.5h1.5c0.8,0,1.5-0.7,1.5-1.5h12v-1.5
			h-12C9.7,1282.4,9.1,1281.7,8.2,1281.7z M8.2,1284.7H6.7v-1.5h1.5V1284.7z"/>
	</g>
	<rect y="1272" class="st0" width="24" height="24"/>
</g>
<g>
	<g>
		<path class="st1" d="M22.5,1210.3v-6c0-0.8-0.7-1.5-1.5-1.5H3c-0.8,0-1.5,0.7-1.5,1.5v6c0.8,0,1.5,0.7,1.5,1.5s-0.7,1.5-1.5,1.5v6
			c0,0.8,0.7,1.5,1.5,1.5h18c0.8,0,1.5-0.7,1.5-1.5v-6c-0.8,0-1.5-0.7-1.5-1.5S21.6,1210.3,22.5,1210.3z M21,1209.2
			c-1.4,0.8-1.9,2.6-1.1,4.1c0.3,0.5,0.6,0.8,1.1,1.1v4.9H3v-4.9c1.4-0.8,1.9-2.6,1.1-4.1c-0.3-0.5-0.6-0.8-1.1-1.1v-4.9h18V1209.2z
			"/>
		<rect x="7.5" y="1210.3" class="st1" width="1.5" height="3"/>
		<rect x="7.5" y="1205.8" class="st1" width="1.5" height="3"/>
		<rect x="7.5" y="1214.8" class="st1" width="1.5" height="3"/>
	</g>
	<rect x="0.1" y="1199.9" class="st0" width="23.9" height="23.9"/>
</g>
<g>
	<path class="st1" d="M7.2,69.8c0,0.1,0,0.3-0.1,0.4S7,70.5,6.9,70.6s-0.2,0.2-0.4,0.2c-0.1,0.1-0.3,0.1-0.4,0.1s-0.3,0-0.4-0.1
		s-0.3-0.1-0.4-0.2s-0.2-0.2-0.2-0.4C5,70.1,5,70,5,69.8c0-0.1,0-0.3,0.1-0.4s0.1-0.3,0.2-0.4s0.2-0.2,0.4-0.2
		c0.1-0.1,0.3-0.1,0.4-0.1s0.3,0,0.4,0.1s0.3,0.1,0.4,0.2s0.2,0.2,0.2,0.4C7.2,69.5,7.2,69.7,7.2,69.8z"/>
	<path class="st1" d="M12.5,69.8c0,0.1,0,0.3-0.1,0.4s-0.1,0.3-0.2,0.4c-0.1,0.1-0.2,0.2-0.4,0.2c-0.1,0.1-0.3,0.1-0.4,0.1
		s-0.3,0-0.4-0.1c-0.1-0.1-0.3-0.1-0.4-0.2c-0.1-0.1-0.2-0.2-0.2-0.4s-0.1-0.3-0.1-0.4s0-0.3,0.1-0.4s0.1-0.3,0.2-0.4
		c0.1-0.1,0.2-0.2,0.4-0.2c0.1-0.1,0.3-0.1,0.4-0.1s0.3,0,0.4,0.1c0.1,0.1,0.3,0.1,0.4,0.2c0.1,0.1,0.2,0.2,0.2,0.4
		C12.4,69.5,12.5,69.7,12.5,69.8z"/>
	<path class="st1" d="M11.5,62.7l-0.4,3H6.2l-0.5-3L11.5,62.7z M5,59H2v1.5h1.7L5,67.2l0,0h7.5l0.7-6H5.4L5,59z"/>
	<path class="st1" d="M14.7,50c-2.3,0-4.6,1-6.1,2.7s-2.3,4.1-2.1,6.4l0.1,0.6h1.5c-0.6-2.8,0.6-5.7,3-7.2s5.5-1.3,7.8,0.4
		c2.2,1.8,3.1,4.8,2.2,7.5s-3.5,4.5-6.4,4.5c-0.2,0-0.3,0-0.5,0L14,66.4c0.2,0,0.4,0,0.6,0c4.5,0,8.2-3.7,8.2-8.2S19.3,50,14.7,50
		L14.7,50z"/>
	<polygon class="st1" points="13.2,54.5 13.2,59.7 19.2,59.7 19.2,58.2 14.7,58.2 14.7,54.5 	"/>
</g>
<g>
	<path class="st2" d="M7.2,45.9c0,0.1,0,0.3-0.1,0.4C7,46.4,7,46.6,6.9,46.7c-0.1,0.1-0.2,0.2-0.4,0.2c-0.1,0-0.2,0.1-0.4,0.1
		c-0.1,0-0.3,0-0.4-0.1s-0.3-0.1-0.4-0.2c-0.1-0.1-0.2-0.2-0.2-0.4C5,46.1,5,46,5,45.9s0-0.3,0.1-0.4c0.1-0.1,0.1-0.3,0.2-0.4
		c0.1-0.1,0.2-0.2,0.4-0.2c0.1-0.1,0.3-0.1,0.4-0.1s0.3,0,0.4,0.1s0.3,0.1,0.4,0.2c0.1,0.1,0.2,0.2,0.2,0.4
		C7.2,45.6,7.2,45.7,7.2,45.9z"/>
	<path class="st2" d="M12.5,45.9c0,0.1,0,0.3-0.1,0.4c-0.1,0.1-0.1,0.3-0.2,0.4c-0.1,0.1-0.2,0.2-0.4,0.2C11.7,47,11.5,47,11.4,47
		s-0.3,0-0.4-0.1c-0.1-0.1-0.3-0.1-0.4-0.2c-0.1-0.1-0.2-0.2-0.2-0.4s-0.1-0.3-0.1-0.4c0-0.1,0-0.3,0.1-0.4c0.1-0.1,0.1-0.3,0.2-0.4
		c0.1-0.1,0.2-0.2,0.4-0.2c0.1-0.1,0.3-0.1,0.4-0.1s0.3,0,0.4,0.1c0.1,0.1,0.3,0.1,0.4,0.2c0.1,0.1,0.2,0.2,0.2,0.4
		C12.4,45.6,12.5,45.7,12.5,45.9z"/>
	<path class="st2" d="M11.5,38.7l-0.4,3H6.2l-0.5-3H11.5z M5,35H2v1.5h1.7L5,43.2l0,0h7.5l0.7-6H5.4L5,35z"/>
	<path class="st2" d="M14.7,26c-2.3,0-4.6,1-6.1,2.7c-1.6,1.7-2.3,4.1-2.1,6.4l0.1,0.6h1.5c-0.6-2.8,0.6-5.7,3-7.2s5.5-1.3,7.8,0.4
		s3.1,4.8,2.2,7.5S17.6,41,14.7,41c-0.2,0-0.3,0-0.5,0L14,42.5c0.2,0,0.4,0,0.6,0c4.5,0,8.2-3.7,8.2-8.2S19.3,26,14.7,26L14.7,26z"
		/>
	<polygon class="st2" points="13.2,30.5 13.2,35.8 19.2,35.8 19.2,34.3 14.7,34.3 14.7,30.5 	"/>
</g>
<g>
	<path class="st3" d="M7.2,21.8c0,0.1,0,0.3-0.1,0.4S7,22.5,6.9,22.6s-0.2,0.2-0.4,0.2s-0.3,0.1-0.4,0.1s-0.3,0-0.4-0.1
		s-0.3-0.1-0.4-0.2s-0.2-0.2-0.2-0.4C5,22.1,5,22,5,21.8s0-0.3,0.1-0.4s0.1-0.3,0.2-0.4s0.2-0.2,0.4-0.2c0.1-0.1,0.3-0.1,0.4-0.1
		s0.3,0,0.4,0.1s0.3,0.1,0.4,0.2s0.2,0.2,0.2,0.4C7.2,21.5,7.2,21.7,7.2,21.8z"/>
	<path class="st3" d="M12.5,21.8c0,0.1,0,0.3-0.1,0.4s-0.1,0.3-0.2,0.4c-0.1,0.1-0.2,0.2-0.4,0.2s-0.3,0.1-0.4,0.1s-0.3,0-0.4-0.1
		c-0.1-0.1-0.3-0.1-0.4-0.2c-0.1-0.1-0.2-0.2-0.2-0.4c-0.1-0.1-0.1-0.3-0.1-0.4s0-0.3,0.1-0.4s0.1-0.3,0.2-0.4
		c0.1-0.1,0.2-0.2,0.4-0.2c0.1-0.1,0.3-0.1,0.4-0.1s0.3,0,0.4,0.1s0.3,0.1,0.4,0.2c0.1,0.1,0.2,0.2,0.2,0.4
		C12.4,21.5,12.5,21.7,12.5,21.8z"/>
	<path class="st3" d="M11.5,14.7l-0.4,3H6.2l-0.5-3L11.5,14.7z M5,11H2v1.5h1.7L5,19.2l0,0h7.5l0.7-6H5.4L5,11z"/>
	<path class="st3" d="M14.7,2c-2.3,0-4.6,1-6.1,2.7C7,6.5,6.3,8.8,6.5,11.1l0.1,0.6h1.5c-0.6-2.8,0.6-5.7,3-7.2s5.5-1.3,7.8,0.4
		s3.1,4.8,2.2,7.5s-3.5,4.5-6.4,4.5c-0.2,0-0.3,0-0.5,0L14,18.4c0.2,0,0.4,0,0.6,0c4.5,0,8.2-3.7,8.2-8.2S19.3,2,14.7,2L14.7,2z"/>
	<polygon class="st3" points="13.2,6.5 13.2,11.7 19.2,11.7 19.2,10.2 14.7,10.2 14.7,6.5 	"/>
</g>
<g>
	<path class="st15" d="M21.1,1449l-5.9-0.8l-2.5-5.6c-0.2-0.4-0.7-0.6-1-0.4c-0.2,0.1-0.3,0.2-0.5,0.4l-2.5,5.6l-5.8,0.8
		c-0.5,0.1-0.8,0.4-0.7,0.9c0,0.2,0.1,0.4,0.2,0.4l4.3,4.3l-1.1,6.1c-0.1,0.4,0.2,0.9,0.7,1c0.2,0,0.4,0,0.5-0.1l5.1-2.9l5.1,2.9
		c0.4,0.2,0.9,0.1,1.1-0.3c0.1-0.2,0.2-0.4,0.1-0.5l-1-6.2l4.3-4.3c0.3-0.3,0.3-0.8,0-1.2C21.4,1449.2,21.2,1449.1,21.1,1449z"/>
	<rect y="1440" class="st0" width="24" height="24"/>
</g>
<path class="st2" d="M20.3,1473.6c0-1.3-1.1-2.4-2.4-2.4h-3.6v-2.4c2.5-0.4,4.9-1.5,6.7-3.1l0.1-0.1c0.3-0.3,0.3-0.9,0-1.3
	c-0.2-0.2-0.4-0.3-0.6-0.3H3.4c-0.2,0-0.5,0.1-0.6,0.3c-0.3,0.3-0.3,0.9,0,1.3l0.1,0.1c1.9,1.6,4.2,2.7,6.7,3.1v2.4H6.1
	c-1.3,0-2.4,1.1-2.4,2.4l-1.2,11.9c0,1.3,1.1,2.4,2.4,2.4h14.3c1.3,0,2.4-1.1,2.4-2.4L20.3,1473.6z"/>
<circle class="st5" cx="12" cy="1479.5" r="6"/>
<path class="st2" d="M14.7,1480.8h-1.8v-0.5l0.1-0.1h1.7c0.5,0,0.9-0.4,0.9-0.9s-0.4-0.9-0.9-0.9h-0.6l1.4-2.3
	c0.3-0.4,0.1-1-0.3-1.2s-1-0.1-1.2,0.3l-1.9,3.2l-1.9-3.2c-0.3-0.4-0.8-0.6-1.2-0.3c-0.4,0.3-0.6,0.8-0.3,1.2l1.4,2.3H9.3
	c-0.5,0-0.9,0.4-0.9,0.9s0.4,0.9,0.9,0.9H11l0.1,0.2v0.4H9.3c-0.5,0-0.9,0.4-0.9,0.9s0.4,0.9,0.9,0.9h1.8v0.9c0,0.5,0.4,0.9,0.9,0.9
	s0.9-0.4,0.9-0.9v-0.9h1.8c0.5,0,0.9-0.4,0.9-0.9S15.2,1480.8,14.7,1480.8z"/>
<g>
	<g>
		<path class="st1" d="M21.8,738c-0.9-0.9-2.1-1.6-3.3-2.1c-0.2-0.1-0.3-0.3-0.2-0.5c0,0,0-0.1,0.1-0.1c0.9-1,1.1-1.7,1.1-3.7
			c0-2.6-1.5-4.1-3.8-4.1s-3.8,1.5-3.8,4.1c0,2,0.2,2.7,1.1,3.7c0.1,0.1,0.1,0.4,0,0.5l-0.1,0.1c-1.2,0.5-2.3,1.2-3.3,2.1
			c-0.5,0.5-0.7,1.7-0.7,2.9c0,0.8,0.6,1.5,1.4,1.6h0.1H21c0.8,0,1.5-0.7,1.5-1.5v-0.1C22.4,739.7,22.3,738.5,21.8,738z M10.5,741
			c0-0.7,0.1-1.3,0.3-2c0.8-0.7,1.7-1.3,2.7-1.7s1.4-1.5,1-2.4c-0.1-0.2-0.2-0.4-0.3-0.5c-0.5-0.6-0.7-0.9-0.7-2.7
			c0-1.2,0.4-2.6,2.3-2.6s2.3,1.4,2.3,2.6c0,1.8-0.2,2.1-0.7,2.7c-0.7,0.8-0.7,1.9,0.1,2.6c0.2,0.2,0.4,0.3,0.6,0.4
			c1,0.4,1.9,1,2.7,1.7c0.2,0.6,0.3,1.3,0.3,2L10.5,741z"/>
		<rect x="4.5" y="725.3" class="st1" width="8.3" height="1.5"/>
		<rect x="4.5" y="728.3" class="st1" width="6" height="1.5"/>
		<rect x="4.5" y="731.3" class="st1" width="3.8" height="1.5"/>
		<path class="st1" d="M3,723h12v3h1.5v-3c0-0.8-0.7-1.5-1.5-1.5H3c-0.8,0-1.5,0.7-1.5,1.5v13.5c0,0.8,0.7,1.5,1.5,1.5h4.5v-1.5H3
			V723z"/>
	</g>
	<rect y="720" class="st0" width="24" height="24"/>
</g>
<g>
	<rect y="1488" class="st0" width="23.9" height="23.9"/>
	<path class="st5" d="M20.9,1497l-5.8-0.8l-2.5-5.5c-0.2-0.4-0.7-0.6-1.1-0.4c-0.2,0.1-0.3,0.2-0.4,0.4l-2.5,5.5l-5.8,0.8
		c-0.4,0.1-0.8,0.5-0.7,0.9c0,0.2,0.1,0.3,0.2,0.5l4.3,4.3l-1.1,6c-0.1,0.4,0.2,0.9,0.7,1h0.1c0.1,0,0.3,0,0.4-0.1l5.1-2.9l5.1,2.9
		c0.1,0.1,0.3,0.1,0.4,0.1c0.5,0,0.8-0.4,0.8-0.8v-0.1l-1.1-6l4.3-4.3c0.3-0.3,0.3-0.8,0-1.2C21.3,1497.1,21.1,1497,20.9,1497z
		 M16.1,1501.5l-0.6,0.6l0.1,0.8l0.8,4.6l-3.8-2.2l-0.7-0.4l-0.7,0.4l-3.8,2.2l0.8-4.6l0.1-0.8l-0.6-0.6l-3.3-3.3l4.4-0.6l0.8-0.1
		l0.3-0.8l1.9-4.1l1.9,4.1l0.3,0.8l0.8,0.1l4.4,0.6L16.1,1501.5z"/>
</g>
<g>
	<path class="st1" d="M21,1518h-9l-1-2.1c-0.2-0.5-0.8-0.9-1.4-0.9H4.1c-0.7,0-1.3,0.4-1.4,1.1l-1.2,4.2v11.3c0,0.8,0.7,1.5,1.5,1.5
		h18c0.8,0,1.5-0.7,1.5-1.5v-12C22.5,1518.7,21.8,1518,21,1518z M21,1531.5H3v-11l1.1-4h5.5l1,2.1l0.4,0.9h10V1531.5z"/>
	<rect y="1512" class="st0" width="24" height="24"/>
</g>
<g>
	<path class="st12" d="M21,1542h-9l-1-2.1c-0.2-0.5-0.8-0.9-1.4-0.9H4.1c-0.7,0-1.3,0.4-1.4,1.1l-1.2,4.2v11.3
		c0,0.8,0.7,1.5,1.5,1.5h18c0.8,0,1.5-0.7,1.5-1.5v-12C22.5,1542.7,21.8,1542,21,1542z M21,1555.5H3v-11l1.1-4h5.5l1,2.1l0.4,0.9h10
		V1555.5z"/>
	<rect y="1536" class="st0" width="24" height="24"/>
</g>
<rect y="648" class="st0" width="24" height="24"/>
<g>
	<polygon class="st2" points="7.9,667.9 5.8,666.2 20.2,666.2 	"/>
	<path class="st2" d="M10.2,664.9v-3.8h1.7l2.9,3.8h2.9l-3.5-4.6c1.1-0.8,1.8-2,1.8-3.5c0-2.3-1.9-4.2-4.2-4.2H7.9v12.3H10.2z
		 M10.2,654.9h1.5c1.1,0,1.9,0.9,1.9,1.9c0,1.1-0.9,1.9-1.9,1.9h-1.5V654.9z"/>
</g>
<rect y="672" class="st0" width="24" height="24"/>
<g>
	<polygon class="st1" points="7.9,691.9 5.8,690.2 20.2,690.2 	"/>
	<path class="st1" d="M10.2,688.9v-3.8h1.7l2.9,3.8h2.9l-3.5-4.6c1.1-0.8,1.8-2,1.8-3.5c0-2.3-1.9-4.2-4.2-4.2H7.9v12.3H10.2z
		 M10.2,678.9h1.5c1.1,0,1.9,0.9,1.9,1.9c0,1.1-0.9,1.9-1.9,1.9h-1.5V678.9z"/>
</g>
<g>
	<path class="st5" d="M10.4,1572.9c0.9,0.9,2.3,0.9,3.2,0l7.9-7.9l0.2-0.2c-0.2-0.7-0.8-1.1-1.4-1.1H3.8c-0.7,0-1.3,0.5-1.4,1.1
		l0.2,0.2L10.4,1572.9z M19.2,1565.2l-6.7,6.7c-0.3,0.3-0.8,0.3-1.1,0l-6.7-6.7H19.2z"/>
	<path class="st5" d="M20.3,1568.4v10.3H3.8v-10.3l-1.5-1.5v11.8c0,0.8,0.7,1.5,1.5,1.5h16.5c0.8,0,1.5-0.7,1.5-1.5v-11.8
		L20.3,1568.4z"/>
	<path class="st0" d="M0,1560h24v24H0V1560z"/>
</g>
<g>
	<g>
		<g>
			<path class="st1" d="M18,1605H6v-14.3H4.5v14.3c0,0.8,0.7,1.5,1.5,1.5h12c0.8,0,1.5-0.7,1.5-1.5v-14.3H18V1605z"/>
			<rect x="8.3" y="1592.3" class="st1" width="1.5" height="11.3"/>
			<rect x="14.3" y="1592.3" class="st1" width="1.5" height="11.3"/>
			<rect x="11.3" y="1592.3" class="st1" width="1.5" height="11.3"/>
			<path class="st1" d="M14.3,1587.8c0-1.2-1-2.3-2.3-2.3s-2.3,1-2.3,2.3H3v1.5h18v-1.5H14.3z"/>
		</g>
		<rect y="1584" class="st0" width="24" height="24"/>
	</g>
</g>
<g>
	<g>
		<rect y="1608" class="st0" width="24" height="24"/>
		<g>
			<path class="st1" d="M20.3,1610.3H3.8c-0.8,0-1.5,0.7-1.5,1.5v13.5c0,0.8,0.7,1.5,1.5,1.5h4.5l3.8,3.8l3.8-3.8h4.5
				c0.8,0,1.5-0.7,1.5-1.5v-13.5C21.7,1610.9,21.1,1610.3,20.3,1610.3z M20.3,1625.3h-5.1l-3.1,3.1l-3.1-3.1H3.8v-13.5h16.5V1625.3z
				"/>
			<rect x="11.3" y="1613.3" class="st1" width="1.5" height="6.8"/>
			<circle class="st1" cx="12" cy="1622.6" r="1.1"/>
		</g>
	</g>
</g>
<g>
	<g>
		<path class="st5" d="M18,1653H6v-14.3H4.5v14.3c0,0.8,0.7,1.5,1.5,1.5h12c0.8,0,1.5-0.7,1.5-1.5v-14.3H18V1653z"/>
		<rect x="8.3" y="1640.3" class="st5" width="1.5" height="11.3"/>
		<rect x="14.3" y="1640.3" class="st5" width="1.5" height="11.3"/>
		<rect x="11.3" y="1640.3" class="st5" width="1.5" height="11.3"/>
		<path class="st5" d="M14.3,1635.8c0-1.3-1-2.3-2.3-2.3s-2.3,1-2.3,2.3H3v1.5h18v-1.5H14.3z"/>
	</g>
	<rect y="1632" class="st0" width="24" height="24"/>
</g>
<g>
	<rect y="1368" class="st0" width="24" height="24"/>
	<g>
		<path class="st16" d="M12,1374.7c-4.3,0-7.9,3.5-7.9,7.9c0,1,0.2,1.9,0.5,2.7l10.1-10.1C13.9,1374.9,13,1374.7,12,1374.7z"/>
		<path class="st17" d="M14.7,1375.2l-10.1,10.1c1.1,3,4,5.1,7.3,5.1c4.3,0,7.9-3.5,7.9-7.9C19.9,1379.2,17.7,1376.3,14.7,1375.2z"
			/>
		<path class="st18" d="M12,1375.1c4.1,0,7.4,3.3,7.4,7.4s-3.3,7.4-7.4,7.4s-7.4-3.3-7.4-7.4C4.6,1378.5,7.9,1375.1,12,1375.1z
			 M12,1374.2c-4.6,0-8.3,3.7-8.3,8.3c0,4.6,3.7,8.3,8.3,8.3s8.3-3.7,8.3-8.3C20.3,1378,16.6,1374.2,12,1374.2z"/>
		<path class="st5" d="M12.6,1378.2c1.7,0,3,1.3,3,3s-1.3,3-3,3h-1.5v2.8H9.5v-8.7h3.1V1378.2z M12.5,1382.5c0.7,0,1.3-0.6,1.3-1.4
			s-0.6-1.4-1.3-1.4h-1.4v2.8H12.5z"/>
		<path class="st19" d="M15.7,1375.1l3.4-1.7c0.2,0,0.3-0.2,0.3-0.4v-3.9h-4.6v5.5c-0.9-0.3-1.8-0.5-2.8-0.5s-1.9,0.2-2.8,0.5v-5.5
			H4.6v3.9c0,0.2,0.1,0.3,0.3,0.4l3.4,1.7c-2.7,1.3-4.6,4.2-4.6,7.4c0,4.6,3.7,8.3,8.3,8.3s8.3-3.7,8.3-8.3
			C20.3,1379.3,18.5,1376.5,15.7,1375.1z M12,1389.5c-3.8,0-6.9-3.1-6.9-6.9s3.1-6.9,6.9-6.9s6.9,3.1,6.9,6.9S15.8,1389.5,12,1389.5
			z"/>
		<path class="st20" d="M12,1374.2c1,0,1.9,0.2,2.8,0.5v-5.5H9.2v5.5C10.1,1374.4,11,1374.2,12,1374.2z"/>
	</g>
</g>
<g>
	<rect y="1392" class="st0" width="24" height="24"/>
	<g>
		<path class="st21" d="M12,1398.7c-4.3,0-7.8,3.5-7.8,7.8c0,1,0.2,1.9,0.5,2.7l10-10C13.9,1398.9,13,1398.7,12,1398.7z"/>
		<path class="st22" d="M14.7,1399.2l-10,10c1.1,3,4,5.1,7.3,5.1c4.3,0,7.8-3.5,7.8-7.8C19.8,1403.2,17.7,1400.3,14.7,1399.2z"/>
		<path d="M15.7,1399.1l3.4-1.7c0.2,0,0.3-0.2,0.3-0.4v-3.9h-4.6v5.5c-0.9-0.3-1.8-0.5-2.8-0.5s-1.9,0.2-2.8,0.5v-5.5H4.6v3.9
			c0,0.2,0.1,0.3,0.3,0.4l3.4,1.7c-2.7,1.3-4.6,4.1-4.6,7.4c0,4.6,3.7,8.3,8.3,8.3s8.3-3.7,8.3-8.3
			C20.3,1403.3,18.5,1400.5,15.7,1399.1z M12,1413.4c-3.8,0-6.9-3.1-6.9-6.9s3.1-6.9,6.9-6.9s6.9,3.1,6.9,6.9
			C18.9,1410.4,15.8,1413.4,12,1413.4z"/>
		<path class="st5" d="M12.2,1402.2c2.3,0,3.9,1.8,3.9,4.3c0,2.6-1.6,4.4-3.9,4.4H9.4v-8.7L12.2,1402.2L12.2,1402.2z M11.1,1409.3
			h1.2c1.3,0,2.2-1.2,2.2-2.8c0-1.7-0.9-2.8-2.2-2.8h-1.2V1409.3z"/>
		<path class="st23" d="M12,1398.2c1,0,1.9,0.2,2.8,0.5v-5.5H9.2v5.5C10.1,1398.4,11,1398.2,12,1398.2z"/>
	</g>
</g>
<g>
	<rect y="1416" class="st0" width="24" height="24"/>
	<g>
		<path class="st24" d="M12,1422.7c-4.3,0-7.9,3.5-7.9,7.9c0,1,0.2,1.9,0.5,2.7l10.1-10.1C13.9,1422.9,13,1422.7,12,1422.7z"/>
		<path class="st25" d="M14.7,1423.2l-10.1,10.1c1.1,3,4,5.1,7.3,5.1c4.3,0,7.9-3.5,7.9-7.9C19.9,1427.2,17.7,1424.3,14.7,1423.2z"
			/>
		<path class="st26" d="M15.7,1423.1l3.4-1.7c0.2,0,0.3-0.2,0.3-0.4v-3.9h-4.6v5.5c-0.9-0.3-1.8-0.5-2.8-0.5s-1.9,0.2-2.8,0.5v-5.5
			H4.6v3.9c0,0.2,0.1,0.3,0.3,0.4l3.4,1.7c-2.7,1.3-4.6,4.2-4.6,7.4c0,4.6,3.7,8.3,8.3,8.3s8.3-3.7,8.3-8.3
			C20.3,1427.3,18.5,1424.5,15.7,1423.1z M12,1437.5c-3.8,0-6.9-3.1-6.9-6.9s3.1-6.9,6.9-6.9s6.9,3.1,6.9,6.9S15.8,1437.5,12,1437.5
			z"/>
		<path class="st26" d="M12.6,1429.8c-1-0.3-1-0.3-1.2-0.5c-0.4-0.2-0.5-0.4-0.5-0.7c0-0.6,0.5-1,1.2-1c0.6,0,1.2,0.3,1.6,0.8
			l1.1-1.2c-0.7-0.7-1.6-1.1-2.6-1.1c-1.7,0-2.9,1.1-2.9,2.5c0,1.3,0.7,2,2.6,2.6c0.7,0.2,0.8,0.3,1.1,0.4c0.4,0.2,0.6,0.5,0.6,0.9
			c0,0.6-0.5,1.1-1.3,1.1c-0.7,0-1.5-0.4-2-1.1l-1.1,1.2c0.8,1,1.8,1.5,3.1,1.5c1.8,0,3.1-1.1,3.1-2.6
			C15.1,1431.2,14.4,1430.4,12.6,1429.8z"/>
		<path class="st27" d="M12,1422.2c1,0,1.9,0.2,2.8,0.5v-5.5H9.2v5.5C10.1,1422.4,11,1422.2,12,1422.2z"/>
	</g>
</g>
<g>
	<rect y="120" class="st0" width="24" height="24"/>
	<g>
		<path class="st28" d="M12,126.7c-4.3,0-7.9,3.5-7.9,7.9c0,1,0.2,1.9,0.5,2.7l10.1-10.1C13.9,126.9,13,126.7,12,126.7z"/>
		<path class="st29" d="M14.7,127.2l-10,10.1c1.1,3,4,5.1,7.3,5.1c4.3,0,7.9-3.5,7.9-7.9C19.9,131.2,17.7,128.3,14.7,127.2z"/>
		<path class="st30" d="M15.7,127.1l3.4-1.7c0.2,0,0.3-0.2,0.3-0.4v-3.9h-4.6v5.5c-0.9-0.3-1.8-0.5-2.8-0.5s-1.9,0.2-2.8,0.5v-5.5
			H4.6v3.9c0,0.2,0.1,0.3,0.3,0.4l3.4,1.7c-2.7,1.3-4.6,4.2-4.6,7.4c0,4.6,3.7,8.3,8.3,8.3s8.3-3.7,8.3-8.3
			C20.3,131.3,18.5,128.5,15.7,127.1z M12,141.5c-3.8,0-6.9-3.1-6.9-6.9s3.1-6.9,6.9-6.9s6.9,3.1,6.9,6.9S15.8,141.5,12,141.5z"/>
		<path class="st30" d="M12,135.8h1.7v1.1c-0.4,0.4-1,0.6-1.6,0.6c-1.4,0-2.4-1.2-2.4-3c0-1.7,0.9-3,2.2-3c0.8,0,1.5,0.5,1.9,1.4
			l1.4-0.8c-0.7-1.3-1.9-2.1-3.3-2.1c-2.2,0-3.9,2-3.9,4.6s1.7,4.5,4.1,4.5c1.3,0,2.4-0.5,3.2-1.3v-3.5H12V135.8z"/>
		<path class="st31" d="M12,126.2c1,0,1.9,0.2,2.8,0.5v-5.5H9.2v5.5C10.1,126.4,11,126.2,12,126.2z"/>
	</g>
</g>
<g>
	<rect y="1656" class="st0" width="24" height="24"/>
	<path class="st32" d="M21.9,1661.4H12l-1.1-2.4c-0.3-0.6-0.8-0.9-1.5-0.9h-6c-0.7,0-1.4,0.5-1.6,1.2l-1.3,4.6v12.3
		c0,0.9,0.7,1.6,1.6,1.6h19.7c0.9,0,1.6-0.7,1.6-1.6v-13.1C23.5,1662.2,22.8,1661.4,21.9,1661.4z"/>
</g>
<g>
	<rect y="1680" class="st0" width="24" height="24"/>
	<path class="st33" d="M21.9,1685.4H12l-1.1-2.4c-0.3-0.6-0.8-0.9-1.5-0.9h-6c-0.7,0-1.4,0.5-1.6,1.2l-1.3,4.6v12.3
		c0,0.9,0.7,1.6,1.6,1.6h19.7c0.9,0,1.6-0.7,1.6-1.6v-13.1C23.5,1686.2,22.8,1685.4,21.9,1685.4z"/>
</g>
<g>
	<g>
		<path d="M12,1725c-0.8,0-1.5-0.7-1.5-1.5H9c0,1.7,1.3,3,3,3s3-1.3,3-3h-1.5C13.5,1724.3,12.8,1725,12,1725z"/>
		<path d="M5.6,1720.5c0.3-0.4,0.4-1,0.4-1.5v-6c0-3.3,2.7-6,6-6s6,2.7,6,6v6c0,0.5,0.1,1.1,0.4,1.5H5.6z M19.5,1719v-6
			c0-4.1-3.4-7.5-7.5-7.5s-7.5,3.4-7.5,7.5v6c0,0.8-0.7,1.5-1.5,1.5v1.5h18v-1.5C20.2,1720.5,19.5,1719.8,19.5,1719z"/>
	</g>
	<rect y="1704" class="st0" width="24" height="24"/>
</g>
<g>
	<g>
		<path class="st33" d="M12,1749c-0.8,0-1.5-0.7-1.5-1.5H9c0,1.7,1.3,3,3,3s3-1.3,3-3h-1.5C13.5,1748.3,12.8,1749,12,1749z"/>
		<path class="st33" d="M5.6,1744.5c0.3-0.4,0.4-1,0.4-1.5v-6c0-3.3,2.7-6,6-6s6,2.7,6,6v6c0,0.5,0.1,1.1,0.4,1.5H5.6z M19.5,1743
			v-6c0-4.1-3.4-7.5-7.5-7.5s-7.5,3.4-7.5,7.5v6c0,0.8-0.7,1.5-1.5,1.5v1.5h18v-1.5C20.2,1744.5,19.5,1743.8,19.5,1743z"/>
	</g>
	<rect y="1728" class="st0" width="24" height="24"/>
</g>
<g>
	<rect y="1752" class="st0" width="24" height="24"/>
	<g>
		<path class="st34" d="M7.9,1771.1l-3-3l4-10.8l9.8,9.9L7.9,1771.1z M14.1,1772.1l-2.4,0.9c-0.2,0.1-0.4,0.1-0.6,0
			c-0.2-0.1-0.3-0.2-0.4-0.4l-0.3-0.7l3.8-1.4l0.3,0.7C14.7,1771.5,14.5,1771.9,14.1,1772.1z M5.8,1773C5.8,1773,5.7,1773,5.8,1773
			c-0.1,0-0.2,0-0.2,0l-2.6-2.6c0,0,0-0.1,0-0.2l0.9-0.9l2.7,2.8L5.8,1773z M9.9,1756.2c-0.3-0.3-0.7-0.4-1-0.4
			c-0.6,0-1.2,0.3-1.4,1l-4.1,11l-1.4,1.4c-0.6,0.6-0.6,1.7,0,2.3l2.6,2.6c0.3,0.3,0.7,0.5,1.1,0.5c0.4,0,0.8-0.2,1.1-0.5l1.4-1.4
			l0.8-0.3l0.3,0.7c0.2,0.6,0.6,1,1.2,1.3c0.3,0.1,0.6,0.2,0.9,0.2c0.3,0,0.5,0,0.8-0.1l2.4-0.9c1.2-0.4,1.8-1.7,1.3-2.9l-0.3-0.7
			l3.6-1.3c1-0.4,1.3-1.7,0.5-2.4L9.9,1756.2z"/>
		<path class="st34" d="M13.5,1757.2H15v-3.7h-1.5V1757.2z"/>
		<path class="st34" d="M18.8,1762.5h3.7v-1.5h-3.7V1762.5z"/>
		<path class="st34" d="M20.8,1756.3l-1.1-1.1l-3,3l1.1,1.1L20.8,1756.3z"/>
	</g>
</g>
</svg>
